<svg id="visual" viewBox="0 0 900 600" width="900" height="600" xmlns="http://www.w3.org/2000/svg" xmlns:xlink="http://www.w3.org/1999/xlink" version="1.1"><rect x="0" y="0" width="900" height="600" fill="#ffffff"></rect><defs><linearGradient id="grad1_0" x1="33.3%" y1="0%" x2="100%" y2="100%"><stop offset="20%" stop-color="#57acf1" stop-opacity="1"></stop><stop offset="80%" stop-color="#57acf1" stop-opacity="1"></stop></linearGradient></defs><defs><linearGradient id="grad1_1" x1="33.3%" y1="0%" x2="100%" y2="100%"><stop offset="20%" stop-color="#57acf1" stop-opacity="1"></stop><stop offset="80%" stop-color="#b5d5f9" stop-opacity="1"></stop></linearGradient></defs><defs><linearGradient id="grad1_2" x1="33.3%" y1="0%" x2="100%" y2="100%"><stop offset="20%" stop-color="#ffffff" stop-opacity="1"></stop><stop offset="80%" stop-color="#b5d5f9" stop-opacity="1"></stop></linearGradient></defs><defs><linearGradient id="grad2_0" x1="0%" y1="0%" x2="66.7%" y2="100%"><stop offset="20%" stop-color="#57acf1" stop-opacity="1"></stop><stop offset="80%" stop-color="#57acf1" stop-opacity="1"></stop></linearGradient></defs><defs><linearGradient id="grad2_1" x1="0%" y1="0%" x2="66.7%" y2="100%"><stop offset="20%" stop-color="#b5d5f9" stop-opacity="1"></stop><stop offset="80%" stop-color="#57acf1" stop-opacity="1"></stop></linearGradient></defs><defs><linearGradient id="grad2_2" x1="0%" y1="0%" x2="66.7%" y2="100%"><stop offset="20%" stop-color="#b5d5f9" stop-opacity="1"></stop><stop offset="80%" stop-color="#ffffff" stop-opacity="1"></stop></linearGradient></defs><g transform="translate(900, 0)"><path d="M0 459.7C-43.5 463 -87 466.2 -119 444C-151 421.9 -171.5 374.3 -202 349.9C-232.5 325.4 -272.8 324.1 -307.6 307.6C-342.3 291 -371.5 259.3 -388 224C-404.5 188.7 -408.4 150 -418.2 112.1C-428.1 74.2 -443.9 37.1 -459.7 0L0 0Z" fill="#dbeafc"></path><path d="M0 306.5C-29 308.6 -58 310.8 -79.3 296C-100.7 281.3 -114.4 249.5 -134.7 233.2C-155 217 -181.9 216.1 -205.1 205.1C-228.2 194 -247.6 172.8 -258.7 149.3C-269.7 125.8 -272.3 100 -278.8 74.7C-285.4 49.4 -295.9 24.7 -306.5 0L0 0Z" fill="#8bc0f5"></path><path d="M0 153.2C-14.5 154.3 -29 155.4 -39.7 148C-50.3 140.6 -57.2 124.8 -67.3 116.6C-77.5 108.5 -90.9 108 -102.5 102.5C-114.1 97 -123.8 86.4 -129.3 74.7C-134.8 62.9 -136.1 50 -139.4 37.4C-142.7 24.7 -148 12.4 -153.2 0L0 0Z" fill="#57acf1"></path></g><g transform="translate(0, 600)"><path d="M0 -459.7C40.6 -458.5 81.2 -457.3 119 -444C156.8 -430.8 191.8 -405.6 216.5 -375C241.2 -344.4 255.7 -308.5 283.5 -283.5C311.4 -258.6 352.8 -244.5 376.7 -217.5C400.7 -190.5 407.3 -150.5 418.2 -112.1C429.2 -73.7 444.4 -36.8 459.7 0L0 0Z" fill="#dbeafc"></path><path d="M0 -306.5C27.1 -305.7 54.1 -304.9 79.3 -296C104.5 -287.2 127.9 -270.4 144.3 -250C160.8 -229.6 170.4 -205.7 189 -189C207.6 -172.4 235.2 -163 251.1 -145C267.1 -127 271.5 -100.3 278.8 -74.7C286.1 -49.1 296.3 -24.6 306.5 0L0 0Z" fill="#8bc0f5"></path><path d="M0 -153.2C13.5 -152.8 27.1 -152.4 39.7 -148C52.3 -143.6 63.9 -135.2 72.2 -125C80.4 -114.8 85.2 -102.8 94.5 -94.5C103.8 -86.2 117.6 -81.5 125.6 -72.5C133.6 -63.5 135.8 -50.2 139.4 -37.4C143.1 -24.6 148.1 -12.3 153.2 0L0 0Z" fill="#57acf1"></path></g></svg>